PathFileType	4	(X/Y/Z)	T1_P1_NoVision_Movement_3_0-681.trc
DataRate	CameraRate	NumFrames	NumMarkers	Units	OrigDataRate	OrigDataStartFrame	OrigNumFrames
60	60	7	27	m	60	425	681
Frame#	Time	RHip			RKnee			RAnkle			RBigToe			RSmallToe			RHeel			LHip			LKnee			LAnkle			LBigToe			LSmallToe			LHeel			Neck			Head			Nose			RShoulder			RElbow			RWrist			RThumb			RIndex			RPinky			LShoulder			LElbow			LWrist			LThumb			LIndex			LPinky		
		X1	Y1	Z1	X2	Y2	Z2	X3	Y3	Z3	X4	Y4	Z4	X5	Y5	Z5	X6	Y6	Z6	X7	Y7	Z7	X8	Y8	Z8	X9	Y9	Z9	X10	Y10	Z10	X11	Y11	Z11	X12	Y12	Z12	X13	Y13	Z13	X14	Y14	Z14	X15	Y15	Z15	X16	Y16	Z16	X17	Y17	Z17	X18	Y18	Z18	X19	Y19	Z19	X20	Y20	Z20	X21	Y21	Z21	X22	Y22	Z22	X23	Y23	Z23	X24	Y24	Z24	X25	Y25	Z25	X26	Y26	Z26	X27	Y27	Z27
426	7.1	-87.36435459462845	3877.789315330077	-597.2338362472203	269.8044391617293	4040.7197218861656	-575.5815465285815	624.9056089003246	4148.007225056103	-523.9008474671174	696.4666808773544	4095.388504315057	-476.8845759261364	700.0216659935356	4084.412407254944	-546.5509752049289	651.6539873413416	4161.90261133184	-524.9062110875399	-111.72619516033562	3964.770017936067	-414.04657798167545	219.46476409175398	4029.5796508025683	-376.4233317196737	577.6065659004677	4194.890024671608	-383.17500412538436	670.6211765429712	4159.339556874579	-346.87869113835103	639.7078355569091	4217.958365351411	-332.88521203293686	610.8756443974689	4257.143329947824	-424.8449121878458	-695.4052013071539	3750.954581887284	-534.5561625263766	-921.4414106031256	3556.965977962602	-451.5125409352597	-784.3727564953541	3587.7726602193948	-436.44671513096614	-587.6848227878621	3710.221290857736	-676.8849000237641	-342.643192963017	3617.261902183043	-676.3560417938044	-534.2880071903376	3413.660154022598	-514.7841157578351	-655.0016887578321	3432.461376512976	-471.9666814272527	-661.9682816627183	3420.463969119711	-444.86425562319425	-625.7944742145697	3386.388962732245	-458.37016473570526	-637.8177133557944	3888.484462470231	-427.4234176752838	-393.53452855810593	4004.27265223999	-361.0288474594657	-143.22252938723605	4000.698616162695	-271.8323486640987	-13.324271641802529	3976.2010292667264	-259.83993389291265	4.445647561161587	3999.391412108236	-232.54888677898532	-5.868218618601001	4024.02355474385	-234.6511579322661
427	7.116666666666666	-82.17382701508038	3851.8654395216386	-589.7523804043905	269.7881900525669	4040.732931754425	-575.6141811194199	624.8454632472037	4148.095050321868	-524.0330356612413	690.6172910190695	4092.875732182854	-477.6595767034083	705.2418014983516	4116.832736542538	-554.1611752581667	651.6190525549221	4162.151512395797	-525.1322405285902	-111.68632977997915	3964.79634145902	-414.1173491096404	214.41239118990188	4029.6780948102214	-377.01938715094667	577.6403958167149	4195.1810856667835	-383.3510958337927	672.5902242705689	4183.16253977657	-349.12840590350356	639.6975078135567	4218.432545192363	-333.1009337548674	610.8291268811007	4257.452698037655	-424.99052306279265	-695.404337412351	3751.4660123320987	-534.8750077783694	-921.5820103074886	3557.229086749024	-451.7841783105527	-784.527651286043	3587.685543373264	-436.36996202187845	-587.7175535603308	3710.6652139202843	-676.9227936710951	-337.2915813445603	3618.7331929305865	-676.403090751395	-529.9438240664822	3413.249115642737	-519.0531411609578	-648.9386896744943	3462.395120628069	-482.85976757139616	-655.8019736103564	3425.3265408595184	-447.35649472056906	-607.7193331757273	3391.883289517983	-444.0575526732835	-637.7395683846792	3887.9691968396473	-427.0391527397359	-393.4525895177519	4004.1312221608664	-360.88431800398695	-143.17776361179693	4000.868796818061	-271.9067009090126	-13.267280886361803	3976.7988712597225	-259.9727763257317	4.271392182557306	3999.79068765014	-232.63834213773845	-5.631913823048478	4024.422944879844	-234.9897699815689
428	7.133333333333334	-82.63276395711253	3879.796473606669	-596.8346325593094	268.9653888715751	4040.4079735359937	-569.3484079581287	620.3862812244628	4117.723547949707	-517.0143000985315	690.4663692959114	4092.9772398248188	-477.9391795064594	699.8180524658603	4085.271508737541	-547.0940596302121	651.5520938294422	4161.18757913212	-524.853061504352	-116.75793882053469	3961.343756163278	-412.5970938924772	219.4738909736672	4029.750509807255	-376.4694146849266	577.3161446139057	4194.467190988498	-382.9853299160137	672.5300588320288	4183.038512718915	-349.16318978385965	633.600647084859	4214.908395164518	-333.8128231749406	611.2828386044017	4234.3166192660265	-409.7045663039595	-695.2734892710031	3751.268916652484	-534.8474393881755	-921.6971431123177	3558.550038145328	-457.6973274378875	-784.5508959889422	3587.5378427733435	-436.3087150729711	-587.5993375781101	3710.7754452739628	-676.983840383513	-342.38085060827524	3616.656402242994	-674.7419292504911	-528.9684119041003	3417.015924089163	-515.5406980474163	-646.7228594981993	3479.327343770125	-498.23726155711967	-653.4441749053983	3427.5538884232237	-449.1738333958763	-583.7917090225296	3376.029558844736	-437.5884356331134	-637.7419466612323	3888.0603310373313	-427.1700540286819	-393.54025231498036	4004.61455917406	-361.09948147006645	-143.2426806785696	4001.2029080604448	-272.08005248099806	-17.666552495198157	4023.0602455414596	-278.93551572280273	4.199842776882476	4000.3532322102174	-232.93685859635252	-5.581648844048658	4024.901862789031	-235.3345991726095
429	7.15	-86.88042405857843	3849.3235551701187	-589.8699048900556	269.57105275569734	4039.956986214763	-575.3675055956728	624.8793205273155	4148.57895376023	-524.1692984170517	690.420392086454	4092.7973549217977	-478.03269960556054	694.620179921055	4085.982480638832	-548.0122447107299	656.1556035953911	4193.539171588528	-532.038476897183	-111.70134047837983	3964.650217093993	-414.0973664962968	214.35411694470787	4029.3853340638593	-376.96920016629906	571.97752229567	4194.967930257669	-383.61082498278887	670.4412699935821	4158.742168041439	-346.6697950954793	635.2690657199935	4195.204444434685	-320.57221063586724	610.42393325516	4257.26266302609	-424.8734130649486	-695.2251900695348	3750.903271159559	-534.6143466896013	-921.5736883440446	3558.5986024479575	-457.70148766352025	-789.0427555764364	3586.4498748990604	-436.6693014467144	-583.2855185960018	3712.053246373407	-677.0218653326694	-333.0728047877212	3623.249211974955	-676.4237387563246	-529.5615366484778	3418.8295084614747	-510.9837634652917	-647.2087318833428	3461.775557240887	-479.5518862953185	-656.9287519404928	3425.2516952171845	-447.98074331723876	-583.8124860651966	3400.633815522606	-442.1058333571639	-637.718002556179	3887.3701492252144	-426.7401966341289	-393.5865334342772	4004.557634968266	-361.1191269168532	-143.3123234304507	4001.220465772886	-272.0639800738337	-12.05440835850551	3998.1908999985026	-273.99552350025226	5.602477167964041	4019.636234409154	-245.21762678282107	-5.558578468155437	4024.94154972209	-235.26383055323996
430	7.166666666666667	-86.98657594106037	3848.5979521968807	-589.4721408005026	260.3693955902772	4015.5205861788295	-559.7064512014364	624.8385797697342	4148.619358218181	-524.0394075278775	690.3041180135732	4092.0677052155443	-477.7337355720669	699.6387882482604	4084.9695975942	-547.1445291472822	656.2210970947662	4193.797776883871	-531.9775285456068	-117.36506281203366	3940.9444005798405	-398.17983086060184	214.19129863471693	4028.9977693719266	-376.66560733375746	578.4578244044502	4197.959839688438	-382.62768894250644	668.6859087084247	4157.322498857677	-344.08475585849214	639.2611041748211	4216.886319680401	-332.56408519647465	605.6055746803376	4235.129389117773	-410.49798453047777	-695.1425542520631	3750.8564370570966	-534.6636598665037	-921.5201907094822	3558.372541709504	-457.49895584028354	-784.4599793992463	3587.6863471292627	-436.3951253131866	-583.1924566027724	3711.3772598009596	-676.7447035243054	-323.10857840654296	3624.9953843471303	-675.7333064105582	-528.6843179506379	3444.365468593123	-516.3079694262411	-643.9081567783758	3477.828163915497	-493.52011191964027	-650.6620024319989	3426.1545667400123	-448.60448675291633	-588.0381570852893	3423.103401519066	-447.6777723842558	-637.6808312026187	3887.194694515794	-426.4316741640714	-393.55254735145274	4004.6922639654817	-361.2770019827971	-143.14579049587093	4001.011947594658	-271.9465120849317	-6.811185680413509	4001.0779176975475	-275.18045863736864	10.576122666813374	4022.948060509071	-246.58880441994734	-5.280205894484016	4024.5402262308858	-235.17576356092985
431	7.183333333333334	-86.94013333084138	3849.1121772414235	-589.6719811302083	261.4562459362756	4019.0196739358507	-559.7587977613223	624.8313016630605	4148.296415103604	-524.1089885590916	690.3855562028891	4092.4784915701616	-477.74916810097994	695.8470942271805	4068.4151208696285	-534.5695652897631	651.576375979825	4162.553234016011	-525.2679025243657	-116.77785985329454	3961.0647382537863	-412.4629696111071	214.28155692340414	4029.844459802575	-377.02620374478147	577.547221586464	4194.9850311588325	-383.0656501070862	663.1923805502124	4154.600266058935	-344.812948751163	639.4612821528192	4217.777457758594	-332.80846587133925	610.72140817636	4257.426350088723	-424.83066151408923	-695.1675465288099	3751.0649546817444	-534.73297871008	-921.7146565241194	3558.5791912704813	-457.60996501608537	-784.5501279722521	3587.693802512862	-436.4029149953325	-583.1356764712065	3711.712551208605	-676.8415249215175	-327.4786454772799	3622.7730943394604	-675.9356395464936	-532.5384874537242	3440.998591645645	-516.0109401289213	-637.0019475370548	3467.435898155742	-481.7392365492368	-645.9181982573954	3430.873975707769	-449.8220893353285	-582.9024199913757	3425.2955654624593	-447.6997568451554	-637.7228476497593	3887.316121386372	-426.61479512268204	-398.6834419335446	4001.3686534833623	-360.0265301037637	-143.3175553117751	4001.462790793993	-272.2004725129119	-11.946766391676354	3997.744059169489	-273.7994660009978	10.194313134471876	4023.0080260029736	-246.64779379537242	-5.402964134523524	4024.9086296931505	-235.35865669150726
432	7.2	-86.93642812032328	3848.9183514224815	-589.6350092270301	255.29006722760263	4016.402317437432	-560.5756706900742	625.0637032485287	4149.382698998297	-524.3564792800692	703.1512520704014	4100.771113245605	-479.74043722593615	706.3558577636261	4122.679128446782	-557.773645109869	656.2212295069373	4194.499431397107	-532.2665928860907	-117.16232052956154	3944.1570663020493	-400.04689705167596	214.2230024259416	4029.2381724714546	-376.8378804897674	578.8442923357901	4198.51916601413	-382.7258027227897	668.7132696759599	4157.953682521609	-344.3345681024159	645.2734310381861	4221.001517360796	-332.15522746938893	612.3884665209789	4238.892634562409	-409.81364487720793	-695.1886875897915	3751.0566019507132	-534.7985108481209	-921.7126880076167	3558.8369207587907	-457.8143457925335	-789.0890215270542	3586.573772965352	-436.69484958151185	-582.7968258405785	3711.4301862640673	-682.2590831750995	-327.4861583048045	3623.3798042648696	-676.2358177285655	-528.0199507545228	3443.618482716917	-516.4463276827937	-633.7587227069254	3469.706002635816	-483.27187402479757	-646.0895255130268	3430.6255129847527	-447.1568911345045	-583.0722261976476	3426.084121603922	-448.6646408663904	-637.6831871996473	3887.2650041887596	-426.61891111945783	-398.74605130842076	4001.447823866148	-359.9586704317039	-143.5007841729384	4001.411056830576	-272.19760218862206	-12.127608319367981	3997.4532286459453	-273.68848583792726	5.617582290733089	4019.1245507453227	-244.99753649509466	-9.872623395427265	4021.2919113512817	-233.7349898288663
